<?xml version="1.0" encoding="UTF-8"?>
<svg xmlns="http://www.w3.org/2000/svg" width="640" height="480" viewBox="0 0 640 480">
  <defs>
  <filter id="speckle" x="0" y="0">
    <feTurbulence type="fractalNoise" baseFrequency="0.85" numOctaves="3" seed="2" result="n"/>
    <feColorMatrix in="n" type="matrix" values="0 0 0 0 0.12  0 0 0 0 0.14  0 0 0 0 0.16  0 0 0 0.35 0"/>
  </filter>
</defs>
  <rect width="640" height="480" fill="#050608"/>
  <rect width="640" height="480" filter="url(#speckle)" opacity="0.55"/>
  <rect x="0" y="0" width="640" height="28" fill="rgba(0,0,0,0.45)"/>
  <text x="12" y="18" fill="rgba(180,190,205,0.7)" font-family="system-ui,sans-serif" font-size="11">SONOCRÍTICO</text>
  
    <line x1="0" y1="72" x2="640" y2="72" stroke="rgba(220,230,240,0.35)" stroke-width="1.2"/>
    <g opacity="0.55"><line x1="0" y1="88" x2="640" y2="88" stroke="rgba(200,210,225,0.12)" stroke-width="0.8"/><line x1="0" y1="112" x2="640" y2="112" stroke="rgba(200,210,225,0.12)" stroke-width="0.8"/><line x1="0" y1="136" x2="640" y2="136" stroke="rgba(200,210,225,0.12)" stroke-width="0.8"/><line x1="0" y1="160" x2="640" y2="160" stroke="rgba(200,210,225,0.12)" stroke-width="0.8"/><line x1="0" y1="184" x2="640" y2="184" stroke="rgba(200,210,225,0.12)" stroke-width="0.8"/><line x1="0" y1="208" x2="640" y2="208" stroke="rgba(200,210,225,0.12)" stroke-width="0.8"/><line x1="0" y1="232" x2="640" y2="232" stroke="rgba(200,210,225,0.12)" stroke-width="0.8"/><line x1="0" y1="256" x2="640" y2="256" stroke="rgba(200,210,225,0.12)" stroke-width="0.8"/><line x1="0" y1="280" x2="640" y2="280" stroke="rgba(200,210,225,0.12)" stroke-width="0.8"/><line x1="0" y1="304" x2="640" y2="304" stroke="rgba(200,210,225,0.12)" stroke-width="0.8"/><line x1="0" y1="328" x2="640" y2="328" stroke="rgba(200,210,225,0.12)" stroke-width="0.8"/><line x1="0" y1="352" x2="640" y2="352" stroke="rgba(200,210,225,0.12)" stroke-width="0.8"/></g>
    <text x="320" y="440" text-anchor="middle" fill="rgba(143,167,196,0.5)" font-size="10">Patrón A</text>
</svg>